<?xml version="1.0" encoding="utf-8"?>
<!-- Generator: Adobe Illustrator 16.0.3, SVG Export Plug-In . SVG Version: 6.00 Build 0)  -->
<!DOCTYPE svg PUBLIC "-//W3C//DTD SVG 1.1//EN" "http://www.w3.org/Graphics/SVG/1.1/DTD/svg11.dtd">
<svg version="1.1" id="Capa_1" xmlns="http://www.w3.org/2000/svg" xmlns:xlink="http://www.w3.org/1999/xlink" x="0px" y="0px"
	 width="480px" height="480px" viewBox="0 0 480 480" enable-background="new 0 0 480 480" xml:space="preserve">
<g>
	<g>
		<path fill="#FFFFFF" d="M295.881,10.709c12.502,0,25.089,0.679,37.551,1.24c8.141,0.332,16.271,1.493,23.915,2.327l-0.574,75.278
			c-2.328,0-4.154,0-5.987,0c-8.263,0-16.517-0.111-24.781-0.111c-6.195,0-12.391,0.059-18.594,0.274
			c-19.941,0.665-34.621,8.145-35.646,33.07c-0.632,17.947-1.096,57.572-1.114,59.659c1.038,0,20.751,0.071,40.597,0.071
			c9.918,0,19.609-0.019,26.371-0.071c5.146,0,10.297,0,16.115,0c-4.043,28.909-7.74,56.665-11.777,84.584h-71.287l-1.61,211.204
			h-87.577l1.611-211.538h-71.619l0.639-84.087h71.958l0.046-6.313c0.131-16.949-0.072-33.898,0.554-50.854
			c0.248-10.63,0.829-21.6,2.739-32.236c4.845-25.753,16.813-47.359,38.366-62.815c18.879-13.461,40.361-19.107,63.129-19.604
			C291.231,10.729,293.554,10.709,295.881,10.709z"/>
	</g>
</g>
</svg>
