<?xml version="1.0" encoding="utf-8"?>
<!-- Generator: Adobe Illustrator 16.0.3, SVG Export Plug-In . SVG Version: 6.00 Build 0)  -->
<!DOCTYPE svg PUBLIC "-//W3C//DTD SVG 1.1//EN" "http://www.w3.org/Graphics/SVG/1.1/DTD/svg11.dtd">
<svg version="1.1" id="Capa_1" xmlns="http://www.w3.org/2000/svg" xmlns:xlink="http://www.w3.org/1999/xlink" x="0px" y="0px"
	 width="480px" height="480px" viewBox="0 0 480 480" enable-background="new 0 0 480 480" xml:space="preserve">
<g>
	<path fill="#FFFFFF" d="M353.883,96.662c0.107,0,0.214,0,0.32,0c13.941,0,25.266,11.397,25.158,25.518
		c-0.106,13.955-11.591,25.352-25.719,25.352c-14.127-0.167-25.264-11.571-25.157-25.518
		C328.592,107.992,339.916,96.662,353.883,96.662z"/>
</g>
<g>
	<path fill="#FFFFFF" d="M449.386,129.324c3.151,33.35,5.182,190.892-4.62,227.808c-13.112,48.317-44.654,76.901-93.527,84.727
		c-18.267,2.938-67.594,4.72-116.894,4.72c-50.422,0-100.792-1.862-117.723-6.256c-48.045-12.418-76.728-43.719-84.339-92.378
		c-5.688-35.727-6.303-201.775,4.006-237.842c13.46-46.957,44.813-74.518,92.325-82.343c21.552-3.525,63.668-4.767,106.186-4.767
		c39.552,0,79.426,1.075,103.435,2.391c29.084,1.528,55.736,10.882,77.342,31.64C436.193,76.758,446.716,101.429,449.386,129.324z
		 M408.659,340.967c6.062-37.255,6.088-173.192,2.589-208.064c-3.791-37.262-26.572-61.759-63.428-67.542
		c-18.268-2.771-62.199-3.999-105.944-3.999c-42.17,0-84.153,1.141-102.634,3.144C102.28,68.76,77.443,91.561,71.541,128.31
		c-6.063,38.958-5.982,184.589-1.442,213.853c4.7,30.452,21.873,51.377,52.265,59.884c16.452,4.605,65.672,6.262,113.958,6.262
		c44.439,0,88.078-1.409,104.475-3.197C378.079,401.023,402.757,378.056,408.659,340.967"/>
</g>
<g>
	<path fill="#FFFFFF" d="M241.021,126.266c59.876,0,108.161,48.659,107.707,108.716c-0.454,59.882-49.487,108.536-109.55,108.536
		c-60.036,0-108.162-48.653-107.708-108.709C131.925,174.752,180.958,126.092,241.021,126.266z M239.419,305.073
		c38.511,0,70.211-31.006,70.852-69.584c0.642-38.958-30.258-70.605-69.036-70.946c-0.213,0-0.427,0-0.641,0
		c-38.484,0-70.212,31.006-70.826,69.584c-0.641,38.792,30.231,70.606,69.036,70.946
		C239.018,305.073,239.205,305.073,239.419,305.073"/>
</g>
</svg>
