<svg id="Layer_1" data-name="Layer 1" xmlns="http://www.w3.org/2000/svg" viewBox="0 0 192.5 51.12"><defs><style>.cls-1{fill:#575756;}.cls-2{fill:#27a7e1;}.cls-3{fill:#e60027;}.cls-4{fill:#c30c22;}.cls-5{fill:#52c3f1;}</style></defs><path class="cls-1" d="M67.8,35.12a2,2,0,0,1,.73.84,2.85,2.85,0,0,1,.26,1.23,2.41,2.41,0,0,1-.55,1.66,1.86,1.86,0,0,1-1.45.62H66a.05.05,0,0,0-.06.06v3a.14.14,0,0,1-.13.13H64.49a.14.14,0,0,1-.13-.13V35a.14.14,0,0,1,.13-.13h2.23A2,2,0,0,1,67.8,35.12ZM67,38a1.2,1.2,0,0,0,.22-.75,1.28,1.28,0,0,0-.22-.77.68.68,0,0,0-.57-.27H66s-.06,0-.06,0v2a.05.05,0,0,0,.06.06h.48A.67.67,0,0,0,67,38Z"/><path class="cls-1" d="M72.38,42.51l-.85-3.07s0,0,0,0H71.1s0,0,0,.06v3a.13.13,0,0,1,0,.09.13.13,0,0,1-.1,0H69.63a.13.13,0,0,1-.1,0,.13.13,0,0,1,0-.09V35a.15.15,0,0,1,0-.09.13.13,0,0,1,.1,0h2.22a2,2,0,0,1,1.08.29,2,2,0,0,1,.73.83,2.71,2.71,0,0,1,.26,1.23,2.67,2.67,0,0,1-.24,1.16,2,2,0,0,1-.69.78l0,0v0l1,3.29v0c0,.08,0,.11-.12.11H72.53A.13.13,0,0,1,72.38,42.51Zm-1.33-6.28v1.91a0,0,0,0,0,0,0h.5a.69.69,0,0,0,.56-.27,1.39,1.39,0,0,0,0-1.47.69.69,0,0,0-.56-.27h-.5A0,0,0,0,0,71.05,36.23Z"/><path class="cls-1" d="M75.18,42.11a2.16,2.16,0,0,1-.61-1.6V36.94a2.3,2.3,0,0,1,3.85-1.6,2.15,2.15,0,0,1,.62,1.6v3.57a2.13,2.13,0,0,1-.62,1.6,2.49,2.49,0,0,1-3.24,0Zm2.12-1a.89.89,0,0,0,.18-.58V36.88a.89.89,0,0,0-.18-.58.64.64,0,0,0-.5-.21.61.61,0,0,0-.49.21.89.89,0,0,0-.18.58v3.69a.89.89,0,0,0,.18.58.61.61,0,0,0,.49.21A.64.64,0,0,0,77.3,41.15Z"/><path class="cls-1" d="M79.94,42.58a.1.1,0,0,1,0-.09V35a.11.11,0,0,1,0-.09.1.1,0,0,1,.09,0h2a2.22,2.22,0,0,1,1.61.59A2.07,2.07,0,0,1,84.24,37v3.47A2.06,2.06,0,0,1,83.63,42a2.17,2.17,0,0,1-1.61.59H80A.1.1,0,0,1,79.94,42.58Zm1.56-1.3.5,0a.61.61,0,0,0,.49-.25,1.09,1.09,0,0,0,.19-.65V37.09a1.11,1.11,0,0,0-.18-.67.63.63,0,0,0-.51-.24H81.5a0,0,0,0,0,0,0v5S81.47,41.28,81.5,41.28Z"/><path class="cls-1" d="M85.71,42.08a2.33,2.33,0,0,1-.6-1.67V35a.11.11,0,0,1,0-.09.1.1,0,0,1,.09,0h1.29a.1.1,0,0,1,.09,0,.11.11,0,0,1,0,.09v5.6a.89.89,0,0,0,.18.58.55.55,0,0,0,.46.22.54.54,0,0,0,.46-.22,1,1,0,0,0,.17-.58V35a.14.14,0,0,1,.13-.13h1.29a.1.1,0,0,1,.09,0,.11.11,0,0,1,0,.09v5.45a2.33,2.33,0,0,1-.6,1.67,2.07,2.07,0,0,1-1.58.63A2.09,2.09,0,0,1,85.71,42.08Z"/><path class="cls-1" d="M90.88,42.12a2.16,2.16,0,0,1-.6-1.6V36.91a2.11,2.11,0,0,1,.6-1.58,2.45,2.45,0,0,1,3.19,0,2.11,2.11,0,0,1,.6,1.58V37a.17.17,0,0,1,0,.1.18.18,0,0,1-.1,0l-1.29,0c-.09,0-.13,0-.13-.12v-.29a.73.73,0,0,0-.18-.52.56.56,0,0,0-.47-.2.57.57,0,0,0-.46.2.73.73,0,0,0-.18.52v3.84a.73.73,0,0,0,.18.52.59.59,0,0,0,.46.19.58.58,0,0,0,.47-.19.73.73,0,0,0,.18-.52v-.3a.1.1,0,0,1,0-.09.12.12,0,0,1,.09,0l1.29.05a.18.18,0,0,1,.1,0,.17.17,0,0,1,0,.1v.11a2.16,2.16,0,0,1-.6,1.6,2.22,2.22,0,0,1-1.6.59A2.18,2.18,0,0,1,90.88,42.12Z"/><path class="cls-1" d="M99.87,34.87a.11.11,0,0,1,0,.09V36a.13.13,0,0,1,0,.1.15.15,0,0,1-.09,0H98.4s-.06,0-.06,0v6.26a.12.12,0,0,1,0,.09.13.13,0,0,1-.1,0H96.92a.12.12,0,0,1-.09,0,.1.1,0,0,1,0-.09V36.23a0,0,0,0,0-.05,0H95.41a.15.15,0,0,1-.09,0,.13.13,0,0,1,0-.1V35a.14.14,0,0,1,.13-.13h4.37A.11.11,0,0,1,99.87,34.87Z"/><path class="cls-1" d="M101,42.11a2.13,2.13,0,0,1-.61-1.6V36.94a2.14,2.14,0,0,1,.61-1.6,2.19,2.19,0,0,1,1.62-.6,2.22,2.22,0,0,1,1.62.6,2.14,2.14,0,0,1,.61,1.6v3.57a2.13,2.13,0,0,1-.61,1.6,2.22,2.22,0,0,1-1.62.6A2.19,2.19,0,0,1,101,42.11Zm2.11-1a.85.85,0,0,0,.19-.58V36.88a.85.85,0,0,0-.19-.58.62.62,0,0,0-.49-.21.61.61,0,0,0-.49.21.85.85,0,0,0-.19.58v3.69a.85.85,0,0,0,.19.58.61.61,0,0,0,.49.21A.62.62,0,0,0,103.06,41.15Z"/><path class="cls-1" d="M108.55,42.51l-.85-3.07s0,0,0,0h-.38s0,0,0,.06v3a.13.13,0,0,1,0,.09.13.13,0,0,1-.1,0h-1.29a.12.12,0,0,1-.09,0,.1.1,0,0,1,0-.09V35a.11.11,0,0,1,0-.09.12.12,0,0,1,.09,0H108a2.08,2.08,0,0,1,1.08.29,2,2,0,0,1,.73.83,2.71,2.71,0,0,1,.26,1.23,2.54,2.54,0,0,1-.25,1.16,1.91,1.91,0,0,1-.68.78l0,0a0,0,0,0,0,0,0l1,3.29v0c0,.08,0,.11-.12.11H108.7A.13.13,0,0,1,108.55,42.51Zm-1.33-6.28v1.91s0,0,0,0h.5a.67.67,0,0,0,.55-.27,1.34,1.34,0,0,0,0-1.47.67.67,0,0,0-.55-.27h-.5S107.22,36.2,107.22,36.23Z"/><path class="cls-1" d="M116.15,42.5,116,41.43s0-.06-.07-.06h-1.4s-.07,0-.07.06l-.17,1.07a.13.13,0,0,1-.15.12h-1.28c-.1,0-.14,0-.11-.14L114.34,35a.14.14,0,0,1,.15-.12H116a.13.13,0,0,1,.14.12l1.61,7.53v0c0,.07,0,.1-.12.1H116.3A.13.13,0,0,1,116.15,42.5Zm-1.44-2.34h1s0,0,0,0l-.51-3s0,0,0,0,0,0,0,0l-.49,3S114.68,40.16,114.71,40.16Z"/><path class="cls-1" d="M119,42.46a1.92,1.92,0,0,1-.75-.72,2.2,2.2,0,0,1-.26-1.07v-.32a.14.14,0,0,1,.13-.13h1.27a.11.11,0,0,1,.09,0,.1.1,0,0,1,0,.09v.25a.81.81,0,0,0,.18.55.54.54,0,0,0,.44.21.55.55,0,0,0,.44-.2.73.73,0,0,0,.17-.52.8.8,0,0,0-.22-.57,5.75,5.75,0,0,0-.86-.71c-.36-.27-.66-.5-.89-.71a2.83,2.83,0,0,1-.58-.77,2.27,2.27,0,0,1-.24-1.06,2,2,0,0,1,.58-1.51,2.15,2.15,0,0,1,3.69,1.57v.27a.12.12,0,0,1,0,.09.13.13,0,0,1-.09,0h-1.27a.13.13,0,0,1-.09,0,.12.12,0,0,1,0-.09v-.31a.86.86,0,0,0-.17-.55.58.58,0,0,0-.45-.2.54.54,0,0,0-.43.19.81.81,0,0,0-.16.54.91.91,0,0,0,.21.59,4.81,4.81,0,0,0,.82.71c.46.35.8.62,1,.83a2.43,2.43,0,0,1,.54.71,2,2,0,0,1,.2.91,2,2,0,0,1-.6,1.56,2.14,2.14,0,0,1-1.56.58A2.41,2.41,0,0,1,119,42.46Z"/><path class="cls-1" d="M127,36.14a.18.18,0,0,1-.1,0h-2.3s0,0,0,0V38s0,.06,0,.06h1.32a.13.13,0,0,1,.1,0,.13.13,0,0,1,0,.09v1.08a.18.18,0,0,1,0,.1.17.17,0,0,1-.1,0h-1.32s0,0,0,.06v1.77s0,.06,0,.06h2.3a.17.17,0,0,1,.1,0,.18.18,0,0,1,0,.1v1.08a.13.13,0,0,1,0,.09.13.13,0,0,1-.1,0h-3.78a.12.12,0,0,1-.09,0,.1.1,0,0,1,0-.09V35a.11.11,0,0,1,0-.09.12.12,0,0,1,.09,0h3.78a.13.13,0,0,1,.1,0,.15.15,0,0,1,0,.09V36A.18.18,0,0,1,127,36.14Z"/><path class="cls-1" d="M128.64,42.46a1.92,1.92,0,0,1-.75-.72,2.1,2.1,0,0,1-.27-1.07v-.32a.13.13,0,0,1,0-.09.13.13,0,0,1,.1,0H129a.13.13,0,0,1,.1,0,.13.13,0,0,1,0,.09v.25a.81.81,0,0,0,.17.55.59.59,0,0,0,.89,0,.77.77,0,0,0,.17-.52.8.8,0,0,0-.22-.57,6.35,6.35,0,0,0-.86-.71,10.6,10.6,0,0,1-.89-.71,3.08,3.08,0,0,1-.59-.77,2.27,2.27,0,0,1-.24-1.06,2,2,0,0,1,.59-1.51,2.15,2.15,0,0,1,3.69,1.57v.27a.14.14,0,0,1-.13.13h-1.27a.18.18,0,0,1-.1,0,.16.16,0,0,1,0-.09v-.31a.81.81,0,0,0-.18-.55.56.56,0,0,0-.44-.2.53.53,0,0,0-.43.19.81.81,0,0,0-.17.54.91.91,0,0,0,.21.59,5,5,0,0,0,.83.71c.45.35.8.62,1,.83a2.43,2.43,0,0,1,.54.71,2,2,0,0,1,.19.91,2.08,2.08,0,0,1-.59,1.56,2.14,2.14,0,0,1-1.57.58A2.37,2.37,0,0,1,128.64,42.46Z"/><path class="cls-1" d="M133.17,42.11a2.13,2.13,0,0,1-.61-1.6V36.94a2.14,2.14,0,0,1,.61-1.6,2.19,2.19,0,0,1,1.62-.6,2.22,2.22,0,0,1,1.62.6,2.14,2.14,0,0,1,.61,1.6v3.57a2.13,2.13,0,0,1-.61,1.6,2.22,2.22,0,0,1-1.62.6A2.19,2.19,0,0,1,133.17,42.11Zm2.11-1a.85.85,0,0,0,.19-.58V36.88a.85.85,0,0,0-.19-.58.62.62,0,0,0-.49-.21.61.61,0,0,0-.49.21.9.9,0,0,0-.19.58v3.69a.9.9,0,0,0,.19.58.61.61,0,0,0,.49.21A.62.62,0,0,0,135.28,41.15Z"/><path class="cls-1" d="M140.77,42.51l-.85-3.07s0,0,0,0h-.38s-.05,0-.05.06v3a.1.1,0,0,1,0,.09.12.12,0,0,1-.09,0H138a.13.13,0,0,1-.1,0,.13.13,0,0,1,0-.09V35a.15.15,0,0,1,0-.09.13.13,0,0,1,.1,0h2.22a2,2,0,0,1,1.08.29,2.06,2.06,0,0,1,.74.83,2.85,2.85,0,0,1,.25,1.23,2.67,2.67,0,0,1-.24,1.16,2,2,0,0,1-.69.78s0,0,0,0a0,0,0,0,0,0,0l1,3.29v0c0,.08,0,.11-.12.11h-1.32A.14.14,0,0,1,140.77,42.51Zm-1.33-6.28v1.91a0,0,0,0,0,.05,0h.5a.69.69,0,0,0,.56-.27,1.39,1.39,0,0,0,0-1.47.69.69,0,0,0-.56-.27h-.5A0,0,0,0,0,139.44,36.23Z"/><path class="cls-1" d="M145.32,42.58a.1.1,0,0,1,0-.09V35a.11.11,0,0,1,0-.09.1.1,0,0,1,.09,0h2a2.21,2.21,0,0,1,1.6.59,2.07,2.07,0,0,1,.61,1.57v3.47A2.06,2.06,0,0,1,149,42a2.17,2.17,0,0,1-1.6.59h-2A.1.1,0,0,1,145.32,42.58Zm1.57-1.3.49,0a.61.61,0,0,0,.49-.25,1.17,1.17,0,0,0,.2-.65V37.09a1.11,1.11,0,0,0-.19-.67.61.61,0,0,0-.51-.24h-.48s-.06,0-.06,0v5A.05.05,0,0,0,146.89,41.28Z"/><path class="cls-1" d="M154.5,36.14a.18.18,0,0,1-.1,0h-2.3s-.06,0-.06,0V38a.05.05,0,0,0,.06.06h1.32a.13.13,0,0,1,.1,0,.12.12,0,0,1,0,.09v1.08a.11.11,0,0,1-.13.13H152.1a.05.05,0,0,0-.06.06v1.77a.05.05,0,0,0,.06.06h2.3a.11.11,0,0,1,.13.13v1.08a.12.12,0,0,1,0,.09.13.13,0,0,1-.1,0h-3.78a.11.11,0,0,1-.09,0,.1.1,0,0,1,0-.09V35a.14.14,0,0,1,.13-.13h3.78a.13.13,0,0,1,.1,0,.14.14,0,0,1,0,.09V36A.17.17,0,0,1,154.5,36.14Z"/><path class="cls-1" d="M158.38,42.46a1.92,1.92,0,0,1-.75-.72,2.2,2.2,0,0,1-.26-1.07v-.32a.14.14,0,0,1,.13-.13h1.27a.12.12,0,0,1,.09,0,.1.1,0,0,1,0,.09v.25a.81.81,0,0,0,.18.55.54.54,0,0,0,.44.21.55.55,0,0,0,.44-.2.77.77,0,0,0,.17-.52.8.8,0,0,0-.22-.57,5.75,5.75,0,0,0-.86-.71c-.36-.27-.66-.5-.89-.71a2.83,2.83,0,0,1-.58-.77,2.16,2.16,0,0,1-.25-1.06,2,2,0,0,1,.59-1.51,2.15,2.15,0,0,1,3.69,1.57v.27a.12.12,0,0,1,0,.09.18.18,0,0,1-.09,0h-1.27a.13.13,0,0,1-.09,0,.12.12,0,0,1,0-.09v-.31a.86.86,0,0,0-.17-.55.59.59,0,0,0-.45-.2.53.53,0,0,0-.43.19.81.81,0,0,0-.16.54.91.91,0,0,0,.21.59,4.81,4.81,0,0,0,.82.71c.46.35.8.62,1,.83a2.43,2.43,0,0,1,.54.71,2,2,0,0,1,.19.91,2,2,0,0,1-.59,1.56,2.14,2.14,0,0,1-1.57.58A2.37,2.37,0,0,1,158.38,42.46Z"/><path class="cls-1" d="M166.39,36.14a.18.18,0,0,1-.1,0H164s-.05,0-.05,0V38s0,.06.05.06h1.32a.13.13,0,0,1,.1,0,.13.13,0,0,1,0,.09v1.08a.18.18,0,0,1,0,.1.17.17,0,0,1-.1,0H164s-.05,0-.05.06v1.77s0,.06.05.06h2.3a.17.17,0,0,1,.1,0,.18.18,0,0,1,0,.1v1.08a.13.13,0,0,1,0,.09.13.13,0,0,1-.1,0h-3.78a.12.12,0,0,1-.09,0,.1.1,0,0,1,0-.09V35a.11.11,0,0,1,0-.09.12.12,0,0,1,.09,0h3.78a.13.13,0,0,1,.1,0,.15.15,0,0,1,0,.09V36A.18.18,0,0,1,166.39,36.14Z"/><path class="cls-1" d="M167.7,42.14a2,2,0,0,1-.6-1.53V36.84a2,2,0,0,1,.6-1.53,2.5,2.5,0,0,1,3.19,0,2,2,0,0,1,.61,1.54v.42a.13.13,0,0,1,0,.09.13.13,0,0,1-.1,0h-1.29a.12.12,0,0,1-.09,0,.1.1,0,0,1,0-.09v-.45a.8.8,0,0,0-.18-.54.59.59,0,0,0-.47-.2.6.6,0,0,0-.46.2.8.8,0,0,0-.18.54v3.79a.8.8,0,0,0,.18.54.57.57,0,0,0,.46.2.56.56,0,0,0,.47-.2.8.8,0,0,0,.18-.54v-.89s0-.06-.05-.06h-.49a.14.14,0,0,1-.13-.13v-1a.13.13,0,0,1,0-.1.13.13,0,0,1,.09,0h2a.14.14,0,0,1,.14.14v2.06a2,2,0,0,1-.61,1.53,2.24,2.24,0,0,1-1.6.57A2.21,2.21,0,0,1,167.7,42.14Z"/><path class="cls-1" d="M172.92,42.08a2.33,2.33,0,0,1-.6-1.67V35a.11.11,0,0,1,0-.09.12.12,0,0,1,.09,0h1.29a.13.13,0,0,1,.1,0,.15.15,0,0,1,0,.09v5.6a.89.89,0,0,0,.17.58.55.55,0,0,0,.46.22.54.54,0,0,0,.46-.22,1,1,0,0,0,.17-.58V35a.11.11,0,0,1,0-.09.12.12,0,0,1,.09,0h1.29a.13.13,0,0,1,.1,0,.15.15,0,0,1,0,.09v5.45a2.29,2.29,0,0,1-.61,1.67,2.07,2.07,0,0,1-1.58.63A2.09,2.09,0,0,1,172.92,42.08Z"/><path class="cls-1" d="M180.52,42.51l-.85-3.07s0,0,0,0h-.38s-.05,0-.05.06v3a.13.13,0,0,1,0,.09.13.13,0,0,1-.1,0h-1.29a.12.12,0,0,1-.09,0,.13.13,0,0,1,0-.09V35a.15.15,0,0,1,0-.09.12.12,0,0,1,.09,0H180a2.05,2.05,0,0,1,1.08.29,2,2,0,0,1,.73.83,2.71,2.71,0,0,1,.26,1.23,2.67,2.67,0,0,1-.24,1.16,2,2,0,0,1-.69.78l0,0v0l1,3.29v0c0,.08,0,.11-.12.11h-1.33A.13.13,0,0,1,180.52,42.51Zm-1.33-6.28v1.91s0,0,.05,0h.5a.66.66,0,0,0,.55-.27,1.34,1.34,0,0,0,0-1.47.66.66,0,0,0-.55-.27h-.5S179.19,36.2,179.19,36.23Z"/><path class="cls-1" d="M183.32,42.11a2.13,2.13,0,0,1-.61-1.6V36.94a2.14,2.14,0,0,1,.61-1.6,2.49,2.49,0,0,1,3.24,0,2.15,2.15,0,0,1,.62,1.6v3.57a2.13,2.13,0,0,1-.62,1.6,2.49,2.49,0,0,1-3.24,0Zm2.11-1a.85.85,0,0,0,.19-.58V36.88a.85.85,0,0,0-.19-.58.68.68,0,0,0-1,0,.89.89,0,0,0-.18.58v3.69a.89.89,0,0,0,.18.58.68.68,0,0,0,1,0Z"/><path class="cls-1" d="M188.89,42.46a1.83,1.83,0,0,1-.74-.72,2.1,2.1,0,0,1-.27-1.07v-.32a.1.1,0,0,1,0-.09.11.11,0,0,1,.09,0h1.27a.14.14,0,0,1,.13.13v.25a.81.81,0,0,0,.18.55.55.55,0,0,0,.44.21.54.54,0,0,0,.44-.2.73.73,0,0,0,.18-.52.85.85,0,0,0-.22-.57,7.08,7.08,0,0,0-.86-.71,11,11,0,0,1-.9-.71,3.05,3.05,0,0,1-.58-.77,2.27,2.27,0,0,1-.24-1.06,2,2,0,0,1,.58-1.51,2.13,2.13,0,0,1,1.55-.57,2.1,2.1,0,0,1,1.55.59,2.06,2.06,0,0,1,.59,1.55v.27a.12.12,0,0,1,0,.09.13.13,0,0,1-.09,0h-1.27a.18.18,0,0,1-.09,0,.12.12,0,0,1,0-.09v-.31a.81.81,0,0,0-.17-.55.56.56,0,0,0-.44-.2.53.53,0,0,0-.43.19.76.76,0,0,0-.17.54.91.91,0,0,0,.21.59,4.6,4.6,0,0,0,.83.71c.45.35.8.62,1,.83a2.43,2.43,0,0,1,.54.71,2.11,2.11,0,0,1,.19.91,2,2,0,0,1-.6,1.56,2.11,2.11,0,0,1-1.56.58A2.41,2.41,0,0,1,188.89,42.46Z"/><path class="cls-2" d="M71.09,28.81a2.9,2.9,0,0,1-1.42,2.05,5.35,5.35,0,0,1-2.8.5H64.32V28.28h1.43c1,0,1.19-.45,1.19-1.38V13.55h4.27V26.69A12.81,12.81,0,0,1,71.09,28.81Z"/><path class="cls-2" d="M83.77,29.8c-.8,1.06-2,1.79-4.69,1.79a6.22,6.22,0,0,1-4.4-1.26,3.89,3.89,0,0,1-1-1.47,7,7,0,0,1-.42-2.95V18.57a5.48,5.48,0,0,1,.82-3.35c1.15-1.72,3-2,4.92-2a6.06,6.06,0,0,1,4.24,1.23,4.33,4.33,0,0,1,1.18,1.8A8.49,8.49,0,0,1,84.7,19v6.81A6.23,6.23,0,0,1,83.77,29.8Zm-3.32-12a2.07,2.07,0,0,0,0-.63c-.2-.75-.87-.8-1.5-.8a1.74,1.74,0,0,0-.84.15c-.6.3-.53,1.23-.53,1.28V27c0,.7,0,1.51,1.45,1.51a2.36,2.36,0,0,0,.87-.15c.55-.28.6-.83.6-1.36Z"/><path class="cls-2" d="M96.11,30.35c-.8.78-2,1.26-4.35,1.26-2.82,0-4.34-.73-5-2a6.41,6.41,0,0,1-.48-2.9V25.66h4.22v1.41c0,.41,0,1.42,1.25,1.42s1.35-.69,1.35-1.24a2.76,2.76,0,0,0-.2-1.41,5.19,5.19,0,0,0-1.4-1.24l-2.54-1.87a15.54,15.54,0,0,1-1.33-1c-.72-.68-1.15-1.43-1.15-3.35a10.56,10.56,0,0,1,.1-1.54,3.57,3.57,0,0,1,2-3.08,9,9,0,0,1,3.35-.53,10.15,10.15,0,0,1,2.32.23,2.86,2.86,0,0,1,2.22,1.72A9.14,9.14,0,0,1,96.91,19h-4V17.76c0-.9-.09-1.48-1.19-1.48a1.1,1.1,0,0,0-.68.2c-.42.3-.37.93-.37,1.39a2.08,2.08,0,0,0,.25,1.31,2.36,2.36,0,0,0,.55.5l3.62,2.55a7.57,7.57,0,0,1,1.25,1c.7.71,1,1.49,1,3.41A4.76,4.76,0,0,1,96.11,30.35Z"/><path class="cls-2" d="M99,31.36V13.55h9.12v3.13h-4.85v4.11h4.57v3.13h-4.57v4.29h4.85v3.15ZM104.44,12H101.8l2.34-3.58h4Z"/><path class="cls-2" d="M126.49,30.38c-1.22,1.16-3.1,1.21-4.64,1.21-2.22,0-3.37-.38-4.2-1.09a2.71,2.71,0,0,1-.82-1A5,5,0,0,1,116.4,27V18.22a4.45,4.45,0,0,1,1.18-3.58c.8-.81,2-1.42,4.42-1.42,3.09,0,4.62,1,5.24,2.4a5.1,5.1,0,0,1,.4,2.37v2.15h-4.19V17.89a3,3,0,0,0-.06-.73c-.17-.73-.79-.83-1.42-.83a1.36,1.36,0,0,0-.85.2c-.55.38-.47,1.31-.47,1.41V26.8c0,1.13.15,1.76,1.42,1.76a2.66,2.66,0,0,0,.63-.07c.75-.28.72-1.06.72-1.69V24.58h4.32v1.58C127.74,27.68,127.69,29.24,126.49,30.38Z"/><path class="cls-2" d="M129.69,31.36V13.55h9.11v3.13H134v4.11h4.57v3.13H134v4.29h4.85v3.15Z"/><path class="cls-2" d="M151.11,30.1c-1,1.19-2.55,1.26-3.92,1.26h-6.62V13.55H147a12,12,0,0,1,2,.15,3.56,3.56,0,0,1,2.34,1.57,4.51,4.51,0,0,1,.58,2.72v8.88A4.9,4.9,0,0,1,151.11,30.1Zm-3.5-11.86a2.44,2.44,0,0,0-.05-.7c-.25-1-1.32-.91-1.55-.91h-1.29V28.28h1.34a1.92,1.92,0,0,0,.78-.1c.72-.2.77-.8.77-1.41Z"/><path class="cls-2" d="M161.2,31.36l-2.4-7.59h-.7v7.59h-4V13.55h6c2.35,0,3.62.61,4.17,1.94a8.49,8.49,0,0,1,.4,3.08c0,2.78-.5,3.81-2.22,4.64l3,8.15Zm-.38-13.9c-.07-.58-.5-.83-1.42-.83h-1.3v4.09h1.32c1.13,0,1.48-.41,1.48-1.85A11,11,0,0,0,160.82,17.46Z"/><path class="cls-2" d="M177.4,29.8c-.8,1.06-2.05,1.79-4.7,1.79a6.21,6.21,0,0,1-4.39-1.26,3.78,3.78,0,0,1-1-1.47,7,7,0,0,1-.43-2.95V18.57a5.42,5.42,0,0,1,.83-3.35c1.14-1.72,3-2,4.91-2a6.09,6.09,0,0,1,4.25,1.23,4.24,4.24,0,0,1,1.17,1.8,8.49,8.49,0,0,1,.3,2.75v6.81A6.22,6.22,0,0,1,177.4,29.8ZM173.63,12H171l2.32-3.58h4.07Zm.45,5.82a2.07,2.07,0,0,0-.05-.63c-.2-.75-.88-.8-1.5-.8a1.76,1.76,0,0,0-.85.15c-.6.3-.52,1.23-.52,1.28V27c0,.7,0,1.51,1.44,1.51a2.4,2.4,0,0,0,.88-.15c.55-.28.6-.83.6-1.36Z"/><path class="cls-2" d="M187.88,31.36l-3.67-11.6v11.6h-3.59V13.55h4.22l3.69,11.55V13.55h3.65V31.36Z"/><path class="cls-3" d="M41.72.56H19.5c.06,2.41.34,5.67.46,8.5.05,1.33-.08,2.55,0,3.56h9.94a1.31,1.31,0,0,1,1.32,1.31l.08,17.22A78.29,78.29,0,0,0,43,33.91v-32A1.32,1.32,0,0,0,41.72.56Z"/><path class="cls-4" d="M31.3,30.84l0,5.29A55.06,55.06,0,0,0,43,37.83l0-.36V33.63A77.41,77.41,0,0,1,31.3,30.84Z"/><path class="cls-4" d="M19.67.56H16c-.08,0,.2,6.76.41,12.06h3.72C20.06,11.61,19.73,3,19.67.56Z"/><path class="cls-2" d="M21.82,45.56A35.94,35.94,0,0,1,6.58,30.84C1.25,21.24,2,11.15,2,.56h-.7a.67.67,0,0,0-.68.67C.6,12,0,22.87,5.38,32.65a35.5,35.5,0,0,0,15.2,14.52c6.9,3.39,14.27,3.39,21.78,3.39a.68.68,0,0,0,.68-.68V49C35.67,49,28.59,48.9,21.82,45.56Z"/><path class="cls-5" d="M31.33,35.71c-8.11-2.05-13.28-8.84-14.5-17-.34-4.22-.64-13.17-.68-18.18H1.7C1.65,11.15,1.13,21.8,6.45,31.41a35.5,35.5,0,0,0,15.2,14.52c6.78,3.33,14,3.39,21.39,3.39V37.47A54.86,54.86,0,0,1,31.33,35.71Z"/><polygon class="cls-4" points="31.3 30.84 31.33 35.7 31.3 30.84 31.3 30.84"/></svg>