<?xml version="1.0" encoding="utf-8"?>
<!-- Generator: Adobe Illustrator 16.0.3, SVG Export Plug-In . SVG Version: 6.00 Build 0)  -->
<!DOCTYPE svg PUBLIC "-//W3C//DTD SVG 1.1//EN" "http://www.w3.org/Graphics/SVG/1.1/DTD/svg11.dtd">
<svg version="1.1" id="Capa_1" xmlns="http://www.w3.org/2000/svg" xmlns:xlink="http://www.w3.org/1999/xlink" x="0px" y="0px"
	 width="480px" height="480px" viewBox="0 0 480 480" enable-background="new 0 0 480 480" xml:space="preserve">
<g id="XMLID_3209_">
	<path id="XMLID_3216_" fill="#FFFFFF" d="M31.656,97.407c-1.896,2.093-3.684,4.326-5.319,6.647
		c-14.989,13.269-26.843,42.463-19.878,78.437C36.36,338.244,167.57,456.913,325.522,471.079c3.405,0.31,6.792,0.461,10.142,0.461
		c18.144-0.002,35.264-4.471,48.903-12.849c6.581-3.809,12.455-8.543,17.435-14.069l13.563-14.999
		c26.453-29.259,24.177-74.582-5.067-101.037l-22.892-20.699c-13.194-11.924-30.223-18.491-47.962-18.491
		c-20.181,0-39.527,8.585-53.075,23.559l-13.555,14.989c-5.304,5.858-9.538,12.442-12.646,19.645
		c-54.065-22.739-98.423-63.345-125.86-115.202c9.935-4.034,18.877-10.285,26.141-18.312l13.557-14.98
		c12.82-14.176,19.352-32.499,18.388-51.584c-0.946-19.077-9.277-36.646-23.455-49.479l-22.882-20.677
		c-13.182-11.921-30.217-18.488-47.966-18.488c-20.203,0-39.55,8.578-53.082,23.537L31.656,97.407z M58.852,94.738
		c10.05-11.108,24.425-17.481,39.44-17.481c13.186,0,25.834,4.879,35.633,13.736l22.88,20.681
		c10.53,9.531,16.717,22.58,17.422,36.756c0.716,14.186-4.135,27.796-13.659,38.327l-13.556,14.978l-0.003,0.005
		c-6.507,7.196-14.822,12.462-24.049,15.242l-4.123,1.235c-2.594,0.779-4.713,2.663-5.79,5.15c-1.076,2.486-1.006,5.321,0.202,7.748
		l1.918,3.861c30.022,60.295,81.04,107.115,143.664,131.844l3.567,1.403c2.342,0.924,4.959,0.835,7.251-0.224
		c2.287-1.068,4.024-3.028,4.828-5.418l1.204-3.6c2.348-6.962,6.037-13.254,10.968-18.7l13.559-14.99
		c10.067-11.128,24.444-17.508,39.438-17.508c13.175,0,25.831,4.882,35.629,13.744l22.883,20.698
		c21.732,19.653,23.421,53.329,3.766,75.066l-13.565,15.004c-3.703,4.107-8.081,7.631-13.209,10.603
		c-13.005,7.986-30.028,11.495-47.973,9.865c-149.837-13.437-274.292-126-302.658-273.75c-5.998-30.976,5.279-53.729,14.323-61.462
		c0.295-0.252,0.575-0.526,0.834-0.813l0.629-0.692c0.27-0.3,0.518-0.615,0.747-0.944c1.296-1.878,2.727-3.681,4.25-5.361
		L58.852,94.738z"/>
	<path id="XMLID_3213_" fill="#FFFFFF" d="M462.884,227.343c0-120.437-97.974-218.416-218.396-218.416
		c-10.551,0-19.137,8.587-19.137,19.14c0,10.544,8.585,19.122,19.137,19.122c99.333,0,180.142,80.817,180.142,180.154
		c0,10.542,8.585,19.123,19.132,19.123C454.309,246.466,462.884,237.885,462.884,227.343z M443.761,237.271
		c-5.478,0-9.937-4.455-9.937-9.928c0-104.408-84.936-189.348-189.337-189.348c-5.482,0-9.943-4.455-9.943-9.928
		c0-5.481,4.461-9.943,9.943-9.943c115.353,0,209.202,93.854,209.202,209.219C453.689,232.816,449.24,237.271,443.761,237.271z"/>
	<path id="XMLID_3210_" fill="#FFFFFF" d="M242.131,80.051c-10.537,0-19.117,8.577-19.117,19.122c0,10.55,8.58,19.132,19.117,19.132
		c61.416,0,111.378,49.966,111.378,111.38c0,10.547,8.585,19.13,19.132,19.13c10.553,0,19.134-8.583,19.134-19.13
		C391.774,147.174,324.643,80.051,242.131,80.051z M372.641,239.618c-5.478,0-9.933-4.451-9.933-9.933
		c0-66.484-54.087-120.576-120.577-120.576c-5.469,0-9.918-4.453-9.918-9.937c0-5.473,4.449-9.926,9.918-9.926
		c77.447,0,140.443,63,140.443,140.438C382.574,235.167,378.119,239.618,372.641,239.618z"/>
</g>
</svg>
