<?xml version="1.0" encoding="utf-8"?>
<!-- Generator: Adobe Illustrator 16.0.3, SVG Export Plug-In . SVG Version: 6.00 Build 0)  -->
<!DOCTYPE svg PUBLIC "-//W3C//DTD SVG 1.1//EN" "http://www.w3.org/Graphics/SVG/1.1/DTD/svg11.dtd">
<svg version="1.1" id="Capa_1" xmlns="http://www.w3.org/2000/svg" xmlns:xlink="http://www.w3.org/1999/xlink" x="0px" y="0px"
	 width="480px" height="480px" viewBox="0 0 480 480" enable-background="new 0 0 480 480" xml:space="preserve">
<g>
	<g>
		<path fill="#FFFFFF" d="M163.349,136.48c4.443,0,8.989,0.794,13.405,1.555c2.632,0.352,5.072,4.229,6.46,7.041
			c6.398,14.967,12.797,29.933,18.318,45.259c3.109,8.098-2.584,15.837-14.49,29.229c-3.725,4.215-4.464,8.264-1.679,13.197
			c18.767,32.227,45.176,55.457,80.111,69.194c1.582,0.607,3.033,0.897,4.381,0.897c2.985,0,5.466-1.45,7.794-4.242
			c14.925-18.034,19.182-25.911,25.228-25.911c1.514,0,3.137,0.483,5.064,1.437c46.662,22.36,50.352,23.245,50.49,28.523
			c1.223,37.506-31.439,52.238-53.564,52.238c-1.147,0-2.267-0.042-3.352-0.125c-45.238-1.575-117.154-37.326-165.971-123.242
			c-17.198-30.458-14.469-65.145,11.421-89.094C151.893,137.848,157.531,136.48,163.349,136.48z"/>
	</g>
	<g>
		<path fill="#FFFFFF" d="M470.313,200.547c22.263,128.175-62.478,249.662-189.769,272.021c-13.695,2.336-27.238,3.497-40.629,3.497
			c-35.875,0-70.59-8.348-103.936-24.627c-2.805-1.409-6.322-2.114-9.611-2.114c-1.645,0-3.227,0.18-4.636,0.525
			C60.166,465.341,19.226,476.798,6.706,479.257c2.723-10.032,5.079-18.835,7.435-27.639c7.96-28.178,16.1-56.176,23.527-84.34
			c1.092-4.229,0.781-9.688-1.126-13.557C-33.91,217.793,41.123,53.169,191.05,17.957c18.525-4.332,36.759-6.377,54.524-6.377
			C358.542,11.58,451.795,94.496,470.313,200.547z M270.968,435.242c105.415-16.901,178.188-115.323,162.959-220.268
			C419.789,118.155,337.951,49.77,244.062,49.776c-11.622,0-23.431,1.043-35.323,3.22C78.27,76.938,7.963,222.202,71.878,337.346
			c7.124,12.672,8.983,23.244,3.946,36.801c-5.756,16.376-9.404,33.277-14.656,51.754c23.113-5.983,44.457-11.263,65.628-17.247
			c1.977-0.524,3.793-0.773,5.535-0.773c3.552,0,6.771,1.05,10.296,3.067c30.5,17.676,62.726,26.865,96.75,26.865
			C249.741,437.813,260.271,436.97,270.968,435.242"/>
	</g>
</g>
</svg>
